<svg xmlns="http://www.w3.org/2000/svg" width="64" height="64" viewBox="0 0 64 64">
  <defs>
    <linearGradient id="bg" x1="0.15" y1="0" x2="0.85" y2="1">
      <stop offset="0" stop-color="#b06a35"/>
      <stop offset="0.55" stop-color="#96562a"/>
      <stop offset="1" stop-color="#7b4420"/>
    </linearGradient>
    <linearGradient id="sheen" x1="0" y1="0" x2="0" y2="1">
      <stop offset="0" stop-color="#ffffff" stop-opacity="0.18"/>
      <stop offset="0.5" stop-color="#ffffff" stop-opacity="0"/>
    </linearGradient>
    <clipPath id="sheet">
      <path d="M12.5 11 H51.5 a3 3 0 0 1 3 3 V47 L48.5 53 H12.5 a3 3 0 0 1 -3 -3 V14 a3 3 0 0 1 3 -3 Z"/>
    </clipPath>
    <mask id="noN">
      <rect width="64" height="64" fill="#fff"/>
      <path d="M15.5 21 H23 L41 36.5 V21 H48.5 V47 H41 L23 30.5 V47 H15.5 Z" fill="#000"/>
    </mask>
  </defs>
  <rect width="64" height="64" rx="15.04" fill="url(#bg)"/>
  <rect width="64" height="64" rx="15.04" fill="url(#sheen)"/>
  <rect x="0.77" y="0.77" width="62.46" height="62.46" rx="14.27" fill="none"
             stroke="#ffffff" stroke-opacity="0.16" stroke-width="1.02"/>
  
  <g transform="rotate(-3 32 32)">
    <g mask="url(#noN)" clip-path="url(#sheet)">
      <rect width="64" height="64" fill="#faf4e4"/>
      <rect x="32" width="32" height="64" fill="#efe5cd"/>
      <path d="M54.5 47 L48.5 53 L48.5 47 Z" fill="#ddd0ac"/>
      <path d="M16.5 15.4 H47.5 M16.5 18.4 H37" stroke="#96562a" stroke-opacity="0.34"
            stroke-width="1.6" stroke-linecap="round"/>
      <path d="M16.5 50.6 H44" stroke="#96562a" stroke-opacity="0.24"
            stroke-width="1.5" stroke-linecap="round"/>
    </g>
    <g clip-path="url(#sheet)">
      <rect x="30.9" y="11" width="2.1" height="42" fill="#faf4e4"/>
      <rect x="33" y="11" width="1.1" height="42" fill="#96562a" fill-opacity="0.16"/>
    </g>
  </g>
</svg>
